<?xml version="1.0" encoding="utf-8"?>
<!DOCTYPE svg PUBLIC "-//W3C//DTD SVG 1.1//EN" "http://www.w3.org/Graphics/SVG/1.1/DTD/svg11.dtd">
<svg version="1.1" id="background" xmlns="http://www.w3.org/2000/svg" xmlns:xlink="http://www.w3.org/1999/xlink" x="0px" y="0px"
	 width="240px" height="182px" viewBox="0 0 240 182" enable-background="new 0 0 240 182" xml:space="preserve">

<style type="text/css">
  #link {
    cursor: pointer;
  }

  #all > rect{
    fill: black;
    fill-opacity: .68;
  }

  #all:hover #schedule path {
    fill: #751E2F !important;
  }

</style>

<g id='all'>
  <rect xmlns="http://www.w3.org/2000/svg" x="0" y="0" width="100%" height="100%" fill-opacity="0"/>
  <path id="arrow" fill-rule="evenodd" clip-rule="evenodd" fill="#7A222E" d="M76.057,32.491L122.116,67l42.941-34.391l-13.404-0.018
	l0.045-32.298L89.505,0.211L89.46,32.509L76.057,32.491z"/>
  <g id="text">
	<path fill="#EDDEC6" d="M40.302,119.167l1.688-5.262c0.148-0.446,0.277-0.889,0.387-1.331c0.109-0.441,0.203-0.885,0.281-1.33
		c0.086,0.461,0.182,0.908,0.287,1.342s0.225,0.857,0.357,1.271l1.758,5.309H40.302z M40.396,126.842v-1.781h-2.039l1.348-4.219
		h5.93l1.371,4.219h-2.062v1.781h5.918v-1.781h-1.512l-4.723-13.816h1.969v-1.688H38.79v1.688h1.969l-4.699,13.816h-1.559v1.781
		H40.396z"/>
	<path fill="#EDDEC6" d="M59.765,126.842v-1.781h-2.18v-9.879c0-0.586-0.016-1.098-0.047-1.535
		c-0.031-0.438-0.082-0.832-0.152-1.184c0.148,0.375,0.301,0.73,0.457,1.066s0.316,0.652,0.48,0.949l7.125,12.75h1.875v-15.984
		h2.039v-1.688h-6.211v1.688h1.945v9c0,0.586,0.016,1.095,0.047,1.529s0.078,0.827,0.141,1.178
		c-0.141-0.367-0.289-0.719-0.445-1.055s-0.32-0.657-0.492-0.961l-6.387-11.379h-4.605v1.688h2.016v13.816h-2.016v1.781H59.765z"/>
	<path fill="#EDDEC6" d="M78.244,126.842v-1.781h-2.109v-13.816h2.109v-1.688h-6.41v1.688h2.016v13.816h-2.016v1.781H78.244z"/>
	<path fill="#EDDEC6" d="M90.195,125.331h1.148l4.629-12.07c0.07-0.156,0.16-0.414,0.27-0.773s0.23-0.789,0.363-1.289
		c-0.023,0.516-0.041,0.947-0.053,1.294c-0.012,0.348-0.018,0.604-0.018,0.768v11.801H94.32v1.781h6.457v-1.781h-2.062v-13.816
		h2.062v-1.688h-5.52l-3.914,10.184c-0.102,0.274-0.197,0.563-0.287,0.867c-0.09,0.305-0.178,0.649-0.264,1.032
		c-0.062-0.312-0.143-0.633-0.24-0.961c-0.098-0.328-0.217-0.672-0.357-1.031l-3.797-10.09h-5.566v1.688h2.016v13.816h-2.016v1.781
		h6.41v-1.781h-2.203V113.26c0-0.578-0.004-1.008-0.012-1.289c-0.008-0.282-0.023-0.539-0.047-0.773
		c0.117,0.398,0.234,0.775,0.352,1.131s0.227,0.666,0.328,0.932L90.195,125.331z"/>
	<path fill="#EDDEC6" d="M108.909,119.167l1.688-5.262c0.148-0.446,0.277-0.889,0.387-1.331c0.109-0.441,0.203-0.885,0.281-1.33
		c0.086,0.461,0.182,0.908,0.287,1.342s0.225,0.857,0.357,1.271l1.758,5.309H108.909z M109.003,126.842v-1.781h-2.039l1.348-4.219
		h5.93l1.371,4.219h-2.062v1.781h5.918v-1.781h-1.512l-4.723-13.816h1.969v-1.688h-7.805v1.688h1.969l-4.699,13.816h-1.559v1.781
		H109.003z"/>
	<path fill="#EDDEC6" d="M133.799,126.842v-5.203h-1.992v3.422h-5.543v-13.816h2.109v-1.688h-6.41v1.688h2.016v13.816h-2.016v1.781
		H133.799z"/>
	<path fill="#EDDEC6" d="M138.953,126.842v-1.371c0.734,0.602,1.492,1.049,2.273,1.342c0.781,0.292,1.613,0.439,2.496,0.439
		c1.719,0,3.117-0.488,4.195-1.465s1.617-2.242,1.617-3.797c0-1.218-0.395-2.261-1.184-3.128s-1.922-1.504-3.398-1.91l-2.156-0.574
		c-1.328-0.352-2.229-0.73-2.701-1.137c-0.473-0.406-0.709-0.953-0.709-1.64c0-0.742,0.285-1.34,0.855-1.793
		c0.57-0.453,1.324-0.679,2.262-0.679c0.828,0,1.594,0.178,2.297,0.533s1.328,0.881,1.875,1.576v1.335h1.805v-5.016h-1.805v1.208
		c-0.602-0.531-1.248-0.932-1.939-1.201s-1.42-0.405-2.186-0.405c-1.625,0-2.939,0.424-3.943,1.272s-1.506,1.951-1.506,3.31
		c0,1.149,0.393,2.139,1.178,2.971s1.896,1.432,3.334,1.799l2.426,0.633c1.102,0.273,1.918,0.658,2.449,1.154
		s0.797,1.119,0.797,1.869c0,0.883-0.334,1.596-1.002,2.139s-1.553,0.814-2.654,0.814c-0.805,0-1.594-0.17-2.367-0.51
		s-1.543-0.854-2.309-1.541v-2.227h-1.875v6H138.953z"/>
	<path fill="#EDDEC6" d="M166.958,126.842v-1.781h-2.086v-6.598h2.379v2.52h1.957v-6.434h-1.957v2.074h-2.379v-5.378h5.906v2.707
		h2.109v-4.395h-12.34v1.688h2.016v13.816h-2.016v1.781H166.958z"/>
	<path fill="#EDDEC6" d="M178.828,115.504c0.328-0.824,0.82-1.565,1.477-2.221c0.625-0.641,1.348-1.137,2.168-1.488
		s1.664-0.527,2.531-0.527c0.922,0,1.779,0.184,2.572,0.551s1.521,0.918,2.186,1.652c0.594,0.664,1.025,1.367,1.295,2.109
		s0.404,1.602,0.404,2.578c0,1.954-0.625,3.584-1.875,4.893s-2.801,1.963-4.652,1.963c-0.883,0-1.723-0.168-2.52-0.504
		s-1.508-0.824-2.133-1.465c-0.625-0.617-1.105-1.344-1.441-2.18s-0.504-1.715-0.504-2.637
		C178.336,117.237,178.5,116.329,178.828,115.504z M176.637,121.786c0.453,1.121,1.105,2.104,1.957,2.947
		c0.852,0.836,1.795,1.461,2.83,1.875c1.035,0.414,2.182,0.622,3.439,0.622c1.305,0,2.496-0.225,3.574-0.674
		c1.078-0.449,2.055-1.131,2.93-2.045c0.812-0.852,1.432-1.814,1.857-2.889s0.639-2.221,0.639-3.439
		c0-1.297-0.203-2.471-0.609-3.521s-1.02-1.998-1.84-2.842c-0.844-0.867-1.811-1.527-2.9-1.98s-2.252-0.68-3.486-0.68
		c-1.258,0-2.428,0.209-3.51,0.627s-2.041,1.033-2.877,1.846c-0.867,0.843-1.531,1.828-1.992,2.953
		c-0.461,1.125-0.691,2.332-0.691,3.621C175.957,119.471,176.184,120.665,176.637,121.786z"/>
	<path fill="#EDDEC6" d="M201.115,111.245h3.41c0.992,0,1.768,0.227,2.326,0.679c0.559,0.454,0.838,1.083,0.838,1.887
		c0,1.023-0.332,1.795-0.996,2.314c-0.664,0.52-1.652,0.78-2.965,0.78h-2.613V111.245z M202.604,118.581
		c1.938,0,3.154,0.197,3.65,0.592s0.744,1.197,0.744,2.408v5.261h4.289v-1.781h-2.016v-3.739c0-1.062-0.201-1.875-0.604-2.437
		c-0.402-0.563-1.041-0.926-1.916-1.09v-0.117c1.047-0.148,1.857-0.57,2.432-1.266s0.861-1.602,0.861-2.719
		c0-0.805-0.195-1.523-0.586-2.156s-0.941-1.125-1.652-1.477c-0.359-0.18-0.869-0.309-1.529-0.387
		c-0.66-0.078-1.67-0.117-3.029-0.117h-6.434v1.688h2.016v13.816h-2.016v1.781h6.434v-1.781h-2.133v-6.48H202.604z"/>
	<path fill="#EDDEC6" d="M43.178,135.245h1.992c1.609,0,2.775,0.289,3.498,0.867s1.084,1.511,1.084,2.801
		c0,1.133-0.301,2.008-0.902,2.625s-1.453,0.926-2.555,0.926h-3.117V135.245z M45.334,150.842v-1.781h-2.156v-4.793h2.801
		c1.023,0,1.848-0.084,2.473-0.252s1.172-0.443,1.641-0.827c0.641-0.531,1.133-1.166,1.477-1.904
		c0.344-0.738,0.516-1.545,0.516-2.42c0-1.672-0.533-2.975-1.6-3.909c-1.066-0.933-2.568-1.4-4.506-1.4h-7.102v1.688h2.016v13.816
		h-2.016v1.781H45.334z"/>
	<path fill="#EDDEC6" d="M59.114,135.245h3.41c0.991,0,1.768,0.227,2.326,0.679c0.558,0.454,0.838,1.083,0.838,1.887
		c0,1.023-0.333,1.795-0.996,2.314c-0.664,0.52-1.652,0.78-2.965,0.78h-2.613V135.245z M60.603,142.581
		c1.937,0,3.153,0.197,3.65,0.592c0.496,0.395,0.744,1.197,0.744,2.408v5.261h4.289v-1.781h-2.016v-3.739
		c0-1.062-0.202-1.875-0.604-2.437c-0.403-0.563-1.042-0.926-1.916-1.09v-0.117c1.046-0.148,1.857-0.57,2.432-1.266
		s0.861-1.602,0.861-2.719c0-0.805-0.196-1.523-0.586-2.156c-0.392-0.633-0.942-1.125-1.652-1.477
		c-0.359-0.18-0.869-0.309-1.529-0.387c-0.661-0.078-1.67-0.117-3.029-0.117h-6.434v1.688h2.016v13.816h-2.016v1.781h6.434v-1.781
		h-2.133v-6.48H60.603z"/>
	<path fill="#EDDEC6" d="M75.331,139.504c0.328-0.824,0.82-1.565,1.477-2.221c0.625-0.641,1.348-1.137,2.168-1.488
		s1.664-0.527,2.531-0.527c0.922,0,1.779,0.184,2.572,0.551s1.521,0.918,2.186,1.652c0.594,0.664,1.025,1.367,1.295,2.109
		s0.404,1.602,0.404,2.578c0,1.954-0.625,3.584-1.875,4.893s-2.801,1.963-4.652,1.963c-0.883,0-1.723-0.168-2.52-0.504
		s-1.508-0.824-2.133-1.465c-0.625-0.617-1.105-1.344-1.441-2.18s-0.504-1.715-0.504-2.637
		C74.839,141.237,75.003,140.329,75.331,139.504z M73.14,145.786c0.453,1.121,1.105,2.104,1.957,2.947
		c0.852,0.836,1.795,1.461,2.83,1.875c1.035,0.414,2.182,0.622,3.439,0.622c1.305,0,2.496-0.225,3.574-0.674
		c1.078-0.449,2.055-1.131,2.93-2.045c0.812-0.852,1.432-1.814,1.857-2.889s0.639-2.221,0.639-3.439
		c0-1.297-0.203-2.471-0.609-3.521s-1.02-1.998-1.84-2.842c-0.844-0.867-1.811-1.527-2.9-1.98s-2.252-0.68-3.486-0.68
		c-1.258,0-2.428,0.209-3.51,0.627s-2.041,1.033-2.877,1.846c-0.867,0.843-1.531,1.828-1.992,2.953
		c-0.461,1.125-0.691,2.332-0.691,3.621C72.46,143.471,72.687,144.665,73.14,145.786z"/>
	<path fill="#EDDEC6" d="M105.805,148.1c-0.965,0.68-2.061,1.02-3.287,1.02c-1.93,0-3.492-0.65-4.688-1.951
		s-1.793-3.014-1.793-5.139c0-2.062,0.584-3.721,1.752-4.975c1.168-1.254,2.709-1.881,4.623-1.881c0.977,0,1.885,0.186,2.725,0.557
		s1.631,0.936,2.373,1.693v1.512h1.887v-5.379h-1.922v1.465c-0.734-0.625-1.543-1.096-2.426-1.412
		c-0.883-0.316-1.824-0.475-2.824-0.475c-1.391,0-2.666,0.306-3.826,0.92c-1.16,0.613-2.174,1.514-3.041,2.701
		c-0.547,0.75-0.955,1.581-1.225,2.491s-0.404,1.912-0.404,3.006c0,1.609,0.311,3.041,0.932,4.295s1.541,2.318,2.76,3.193
		c0.688,0.493,1.441,0.86,2.262,1.102c0.82,0.242,1.723,0.364,2.707,0.364c1.922,0,3.545-0.512,4.869-1.535s2.264-2.488,2.818-4.395
		h-2.145C107.479,146.479,106.77,147.42,105.805,148.1z"/>
	<path fill="#EDDEC6" d="M126.516,150.842v-4.804h-2.062v3.023h-6.938v-6.574h2.953v2.449h2.016v-6.387h-2.016v2.098h-2.953v-5.402
		h6.938v2.707h2.062v-4.395h-13.301v1.688h2.016v13.816h-2.016v1.781H126.516z"/>
	<path fill="#EDDEC6" d="M131.718,150.842v-1.371c0.734,0.602,1.492,1.049,2.273,1.342c0.781,0.292,1.613,0.439,2.496,0.439
		c1.719,0,3.117-0.488,4.195-1.465s1.617-2.242,1.617-3.797c0-1.218-0.395-2.261-1.184-3.128s-1.922-1.504-3.398-1.91l-2.156-0.574
		c-1.328-0.352-2.229-0.73-2.701-1.137c-0.473-0.406-0.709-0.953-0.709-1.64c0-0.742,0.285-1.34,0.855-1.793
		c0.57-0.453,1.324-0.679,2.262-0.679c0.828,0,1.594,0.178,2.297,0.533s1.328,0.881,1.875,1.576v1.335h1.805v-5.016h-1.805v1.208
		c-0.602-0.531-1.248-0.932-1.939-1.201s-1.42-0.405-2.186-0.405c-1.625,0-2.939,0.424-3.943,1.272s-1.506,1.951-1.506,3.31
		c0,1.149,0.393,2.139,1.178,2.971s1.896,1.432,3.334,1.799l2.426,0.633c1.102,0.273,1.918,0.658,2.449,1.154
		s0.797,1.119,0.797,1.869c0,0.883-0.334,1.596-1.002,2.139s-1.553,0.814-2.654,0.814c-0.805,0-1.594-0.17-2.367-0.51
		s-1.543-0.854-2.309-1.541v-2.227h-1.875v6H131.718z"/>
	<path fill="#EDDEC6" d="M147.653,150.842v-1.371c0.734,0.602,1.492,1.049,2.273,1.342c0.781,0.292,1.613,0.439,2.496,0.439
		c1.719,0,3.117-0.488,4.195-1.465s1.617-2.242,1.617-3.797c0-1.218-0.395-2.261-1.184-3.128s-1.922-1.504-3.398-1.91l-2.156-0.574
		c-1.328-0.352-2.229-0.73-2.701-1.137c-0.473-0.406-0.709-0.953-0.709-1.64c0-0.742,0.285-1.34,0.855-1.793
		c0.57-0.453,1.324-0.679,2.262-0.679c0.828,0,1.594,0.178,2.297,0.533s1.328,0.881,1.875,1.576v1.335h1.805v-5.016h-1.805v1.208
		c-0.602-0.531-1.248-0.932-1.939-1.201s-1.42-0.405-2.186-0.405c-1.625,0-2.939,0.424-3.943,1.272s-1.506,1.951-1.506,3.31
		c0,1.149,0.393,2.139,1.178,2.971s1.896,1.432,3.334,1.799l2.426,0.633c1.102,0.273,1.918,0.658,2.449,1.154
		s0.797,1.119,0.797,1.869c0,0.883-0.334,1.596-1.002,2.139s-1.553,0.814-2.654,0.814c-0.805,0-1.594-0.17-2.367-0.51
		s-1.543-0.854-2.309-1.541v-2.227h-1.875v6H147.653z"/>
	<path fill="#EDDEC6" d="M167.645,150.842v-1.781h-2.109v-13.816h2.109v-1.688h-6.41v1.688h2.016v13.816h-2.016v1.781H167.645z"/>
	<path fill="#EDDEC6" d="M176.643,150.842v-1.781h-2.18v-9.879c0-0.586-0.016-1.098-0.046-1.535
		c-0.032-0.438-0.083-0.832-0.153-1.184c0.148,0.375,0.301,0.73,0.457,1.066s0.316,0.652,0.48,0.949l7.125,12.75h1.875v-15.984h2.04
		v-1.688h-6.212v1.688h1.945v9c0,0.586,0.016,1.095,0.047,1.529s0.078,0.827,0.141,1.178c-0.141-0.367-0.289-0.719-0.445-1.055
		s-0.32-0.657-0.492-0.961l-6.387-11.379h-4.604v1.688h2.016v13.816h-2.016v1.781H176.643z"/>
	<path fill="#EDDEC6" d="M201.397,147.954c-1.004,0.777-2.166,1.166-3.486,1.166c-1.93,0-3.492-0.65-4.688-1.951
		s-1.793-3.014-1.793-5.139c0-2.062,0.588-3.721,1.764-4.975c1.176-1.254,2.729-1.881,4.658-1.881c0.984,0,1.9,0.186,2.748,0.557
		s1.654,0.936,2.42,1.693v1.465h1.945v-5.333h-1.945v1.465c-0.766-0.641-1.588-1.115-2.467-1.424s-1.857-0.463-2.936-0.463
		c-1.391,0-2.67,0.306-3.838,0.92c-1.168,0.613-2.186,1.514-3.053,2.701c-0.539,0.743-0.941,1.569-1.207,2.479
		s-0.398,1.916-0.398,3.018c0,1.594,0.311,3.023,0.932,4.289s1.541,2.34,2.76,3.223c0.664,0.484,1.412,0.846,2.244,1.084
		s1.764,0.357,2.795,0.357c1.211,0,2.266-0.2,3.164-0.598s1.711-1.023,2.438-1.875v2.109h1.887v-6.023h1.922v-1.852h-8.297v1.852
		h4.488C203.087,146.131,202.401,147.176,201.397,147.954z"/>
  </g>
  <g id="schedule">
	<path fill="#A4A248" d="M53.513,102.842v-1.371c0.734,0.602,1.492,1.049,2.273,1.342c0.781,0.292,1.613,0.439,2.496,0.439
		c1.719,0,3.117-0.488,4.195-1.465s1.617-2.242,1.617-3.797c0-1.218-0.395-2.261-1.184-3.128s-1.922-1.504-3.398-1.91l-2.156-0.574
		c-1.328-0.352-2.229-0.73-2.701-1.137c-0.473-0.406-0.709-0.953-0.709-1.64c0-0.742,0.285-1.34,0.855-1.793
		c0.57-0.453,1.324-0.679,2.262-0.679c0.828,0,1.594,0.178,2.297,0.533s1.328,0.881,1.875,1.576v1.335h1.805v-5.016h-1.805v1.208
		c-0.602-0.531-1.248-0.932-1.939-1.201s-1.42-0.405-2.186-0.405c-1.625,0-2.939,0.424-3.943,1.272s-1.506,1.951-1.506,3.31
		c0,1.149,0.393,2.139,1.178,2.971s1.896,1.432,3.334,1.799l2.426,0.633c1.102,0.273,1.918,0.658,2.449,1.154
		s0.797,1.119,0.797,1.869c0,0.883-0.334,1.596-1.002,2.139s-1.553,0.814-2.654,0.814c-0.805,0-1.594-0.17-2.367-0.51
		s-1.543-0.854-2.309-1.541v-2.227h-1.875v6H53.513z"/>
	<path fill="#A4A248" d="M79.58,100.1c-0.965,0.68-2.061,1.02-3.287,1.02c-1.93,0-3.492-0.65-4.688-1.951s-1.793-3.014-1.793-5.139
		c0-2.062,0.584-3.721,1.752-4.975c1.168-1.254,2.709-1.881,4.623-1.881c0.977,0,1.885,0.186,2.725,0.557s1.631,0.936,2.373,1.693
		v1.512h1.887v-5.379H81.25v1.465c-0.734-0.625-1.543-1.096-2.426-1.412S77,85.135,76,85.135c-1.391,0-2.666,0.306-3.826,0.92
		c-1.16,0.613-2.174,1.514-3.041,2.701c-0.547,0.75-0.955,1.581-1.225,2.491s-0.404,1.912-0.404,3.006
		c0,1.609,0.311,3.041,0.932,4.295s1.541,2.318,2.76,3.193c0.688,0.493,1.441,0.86,2.262,1.102c0.82,0.242,1.723,0.364,2.707,0.364
		c1.922,0,3.545-0.512,4.869-1.535s2.264-2.488,2.818-4.395h-2.145C81.254,98.479,80.545,99.42,79.58,100.1z"/>
	<path fill="#A4A248" d="M93.4,102.842v-1.781h-2.109v-6.48h7.395v6.48h-2.121v1.781h6.434v-1.781h-2.016V87.245h2.016v-1.688
		h-6.434v1.688h2.121v5.52h-7.395v-5.52H93.4v-1.688h-6.41v1.688h2.016v13.816H86.99v1.781H93.4z"/>
	<path fill="#A4A248" d="M118.864,102.842v-4.804h-2.062v3.023h-6.938v-6.574h2.953v2.449h2.016v-6.387h-2.016v2.098h-2.953v-5.402
		h6.938v2.707h2.062v-4.395h-13.301v1.688h2.016v13.816h-2.016v1.781H118.864z"/>
	<path fill="#A4A248" d="M126.012,87.268h1.629c2.383,0,4.214,0.578,5.496,1.734c1.281,1.156,1.922,2.809,1.922,4.957
		c0,2.18-0.635,3.918-1.904,5.215c-1.271,1.297-2.971,1.946-5.104,1.946h-2.039V87.268z M127.711,102.842
		c1.281,0,2.342-0.089,3.182-0.27c0.839-0.179,1.596-0.472,2.268-0.878c1.359-0.805,2.408-1.865,3.146-3.182s1.107-2.783,1.107-4.4
		s-0.363-3.084-1.09-4.4s-1.734-2.338-3.023-3.064c-0.673-0.383-1.373-0.66-2.104-0.832c-0.731-0.172-1.749-0.258-3.053-0.258
		h-6.434v1.711h2.016v13.793h-2.016v1.781H127.711z"/>
	<path fill="#A4A248" d="M140.354,85.557v1.688h2.062v9.574c0,2.062,0.5,3.643,1.5,4.74c1,1.098,2.438,1.647,4.312,1.647
		c1.992,0,3.51-0.535,4.553-1.605s1.564-2.625,1.564-4.664v-9.691h2.016v-1.688h-6.41v1.688h2.086v10.008
		c0,1.281-0.303,2.25-0.908,2.906c-0.605,0.657-1.51,0.985-2.713,0.985c-1.25,0-2.182-0.338-2.795-1.014s-0.92-1.709-0.92-3.1
		v-9.785h2.086v-1.688H140.354z"/>
	<path fill="#A4A248" d="M170.716,102.842v-5.203h-1.992v3.422h-5.543V87.245h2.109v-1.688h-6.41v1.688h2.016v13.816h-2.016v1.781
		H170.716z"/>
	<path fill="#A4A248" d="M186.815,102.842v-4.804h-2.062v3.023h-6.938v-6.574h2.953v2.449h2.016v-6.387h-2.016v2.098h-2.953v-5.402
		h6.938v2.707h2.062v-4.395h-13.301v1.688h2.016v13.816h-2.016v1.781H186.815z"/>
  </g>
  <a id="link" xlink:href="../../../../schedule-animals-for-processing.html" target="_top">
	<rect xmlns="http://www.w3.org/2000/svg" x="0" y="0" width="100%" height="100%" fill-opacity="0"/>
  </a>
</g>
</svg>
